<mxfile host="app.diagrams.net" modified="2024-05-13T07:44:03.214Z" agent="Mozilla/5.0 (Windows NT 10.0; Win64; x64) AppleWebKit/537.36 (KHTML, like Gecko) Chrome/124.0.0.0 Safari/537.36 Edg/124.0.0.0" etag="IiMNd2ep5arPVSzBrcWj" version="24.4.0" type="device">
  <diagram name="ページ1" id="AvuZTYZwSpTfi3i4aA59">
    <mxGraphModel dx="1242" dy="1746" grid="1" gridSize="10" guides="1" tooltips="1" connect="1" arrows="1" fold="1" page="1" pageScale="1" pageWidth="827" pageHeight="1169" math="0" shadow="0">
      <root>
        <mxCell id="0" />
        <mxCell id="1" parent="0" />
        <mxCell id="zXDxkU9e8F_hktkV6KAk-51" value="" style="rounded=0;whiteSpace=wrap;html=1;" parent="1" vertex="1">
          <mxGeometry x="40" y="-30" width="1020" height="540" as="geometry" />
        </mxCell>
        <mxCell id="zXDxkU9e8F_hktkV6KAk-8" value="main.c" style="swimlane;fontStyle=0;childLayout=stackLayout;horizontal=1;startSize=30;horizontalStack=0;resizeParent=1;resizeParentMax=0;resizeLast=0;collapsible=1;marginBottom=0;whiteSpace=wrap;html=1;" parent="1" vertex="1">
          <mxGeometry x="80" y="160" width="160" height="60" as="geometry" />
        </mxCell>
        <mxCell id="zXDxkU9e8F_hktkV6KAk-11" value="main()" style="text;strokeColor=none;fillColor=none;align=left;verticalAlign=middle;spacingLeft=4;spacingRight=4;overflow=hidden;points=[[0,0.5],[1,0.5]];portConstraint=eastwest;rotatable=0;whiteSpace=wrap;html=1;" parent="zXDxkU9e8F_hktkV6KAk-8" vertex="1">
          <mxGeometry y="30" width="160" height="30" as="geometry" />
        </mxCell>
        <mxCell id="zXDxkU9e8F_hktkV6KAk-12" value="display.c" style="swimlane;fontStyle=0;childLayout=stackLayout;horizontal=1;startSize=30;horizontalStack=0;resizeParent=1;resizeParentMax=0;resizeLast=0;collapsible=1;marginBottom=0;whiteSpace=wrap;html=1;" parent="1" vertex="1">
          <mxGeometry x="560" y="160" width="160" height="120" as="geometry" />
        </mxCell>
        <mxCell id="zXDxkU9e8F_hktkV6KAk-13" value="Show_GameTitle()" style="text;strokeColor=none;fillColor=none;align=left;verticalAlign=middle;spacingLeft=4;spacingRight=4;overflow=hidden;points=[[0,0.5],[1,0.5]];portConstraint=eastwest;rotatable=0;whiteSpace=wrap;html=1;" parent="zXDxkU9e8F_hktkV6KAk-12" vertex="1">
          <mxGeometry y="30" width="160" height="30" as="geometry" />
        </mxCell>
        <mxCell id="zXDxkU9e8F_hktkV6KAk-14" value="Show_ExitGame()" style="text;strokeColor=none;fillColor=none;align=left;verticalAlign=middle;spacingLeft=4;spacingRight=4;overflow=hidden;points=[[0,0.5],[1,0.5]];portConstraint=eastwest;rotatable=0;whiteSpace=wrap;html=1;" parent="zXDxkU9e8F_hktkV6KAk-12" vertex="1">
          <mxGeometry y="60" width="160" height="30" as="geometry" />
        </mxCell>
        <mxCell id="zXDxkU9e8F_hktkV6KAk-15" value="Show_GameInfo()" style="text;strokeColor=none;fillColor=none;align=left;verticalAlign=middle;spacingLeft=4;spacingRight=4;overflow=hidden;points=[[0,0.5],[1,0.5]];portConstraint=eastwest;rotatable=0;whiteSpace=wrap;html=1;" parent="zXDxkU9e8F_hktkV6KAk-12" vertex="1">
          <mxGeometry y="90" width="160" height="30" as="geometry" />
        </mxCell>
        <mxCell id="zXDxkU9e8F_hktkV6KAk-16" value="game.c" style="swimlane;fontStyle=0;childLayout=stackLayout;horizontal=1;startSize=30;horizontalStack=0;resizeParent=1;resizeParentMax=0;resizeLast=0;collapsible=1;marginBottom=0;whiteSpace=wrap;html=1;" parent="1" vertex="1">
          <mxGeometry x="320" y="160" width="160" height="150" as="geometry" />
        </mxCell>
        <mxCell id="zXDxkU9e8F_hktkV6KAk-17" value="Play_Tic_Tac_Toe()" style="text;strokeColor=none;fillColor=none;align=left;verticalAlign=middle;spacingLeft=4;spacingRight=4;overflow=hidden;points=[[0,0.5],[1,0.5]];portConstraint=eastwest;rotatable=0;whiteSpace=wrap;html=1;" parent="zXDxkU9e8F_hktkV6KAk-16" vertex="1">
          <mxGeometry y="30" width="160" height="30" as="geometry" />
        </mxCell>
        <mxCell id="zXDxkU9e8F_hktkV6KAk-18" value="isCorrectInput()" style="text;strokeColor=none;fillColor=none;align=left;verticalAlign=middle;spacingLeft=4;spacingRight=4;overflow=hidden;points=[[0,0.5],[1,0.5]];portConstraint=eastwest;rotatable=0;whiteSpace=wrap;html=1;" parent="zXDxkU9e8F_hktkV6KAk-16" vertex="1">
          <mxGeometry y="60" width="160" height="30" as="geometry" />
        </mxCell>
        <mxCell id="zXDxkU9e8F_hktkV6KAk-19" value="Suggest_Reinput()" style="text;strokeColor=none;fillColor=none;align=left;verticalAlign=middle;spacingLeft=4;spacingRight=4;overflow=hidden;points=[[0,0.5],[1,0.5]];portConstraint=eastwest;rotatable=0;whiteSpace=wrap;html=1;" parent="zXDxkU9e8F_hktkV6KAk-16" vertex="1">
          <mxGeometry y="90" width="160" height="30" as="geometry" />
        </mxCell>
        <mxCell id="zXDxkU9e8F_hktkV6KAk-21" value="isGameEnded()" style="text;strokeColor=none;fillColor=none;align=left;verticalAlign=middle;spacingLeft=4;spacingRight=4;overflow=hidden;points=[[0,0.5],[1,0.5]];portConstraint=eastwest;rotatable=0;whiteSpace=wrap;html=1;" parent="zXDxkU9e8F_hktkV6KAk-16" vertex="1">
          <mxGeometry y="120" width="160" height="30" as="geometry" />
        </mxCell>
        <mxCell id="zXDxkU9e8F_hktkV6KAk-23" value="general.c" style="swimlane;fontStyle=0;childLayout=stackLayout;horizontal=1;startSize=30;horizontalStack=0;resizeParent=1;resizeParentMax=0;resizeLast=0;collapsible=1;marginBottom=0;whiteSpace=wrap;html=1;" parent="1" vertex="1">
          <mxGeometry x="800" y="160" width="230" height="180" as="geometry" />
        </mxCell>
        <mxCell id="zXDxkU9e8F_hktkV6KAk-24" value="Show_Headder()" style="text;strokeColor=none;fillColor=none;align=left;verticalAlign=middle;spacingLeft=4;spacingRight=4;overflow=hidden;points=[[0,0.5],[1,0.5]];portConstraint=eastwest;rotatable=0;whiteSpace=wrap;html=1;" parent="zXDxkU9e8F_hktkV6KAk-23" vertex="1">
          <mxGeometry y="30" width="230" height="30" as="geometry" />
        </mxCell>
        <mxCell id="zXDxkU9e8F_hktkV6KAk-25" value="Get_Input()" style="text;strokeColor=none;fillColor=none;align=left;verticalAlign=middle;spacingLeft=4;spacingRight=4;overflow=hidden;points=[[0,0.5],[1,0.5]];portConstraint=eastwest;rotatable=0;whiteSpace=wrap;html=1;" parent="zXDxkU9e8F_hktkV6KAk-23" vertex="1">
          <mxGeometry y="60" width="230" height="30" as="geometry" />
        </mxCell>
        <mxCell id="zXDxkU9e8F_hktkV6KAk-32" value="enum BOOL" style="text;strokeColor=none;fillColor=none;align=left;verticalAlign=middle;spacingLeft=4;spacingRight=4;overflow=hidden;points=[[0,0.5],[1,0.5]];portConstraint=eastwest;rotatable=0;whiteSpace=wrap;html=1;" parent="zXDxkU9e8F_hktkV6KAk-23" vertex="1">
          <mxGeometry y="90" width="230" height="30" as="geometry" />
        </mxCell>
        <mxCell id="zXDxkU9e8F_hktkV6KAk-33" value="enum SHOW_RESULT_INSTRUCTION" style="text;strokeColor=none;fillColor=none;align=left;verticalAlign=middle;spacingLeft=4;spacingRight=4;overflow=hidden;points=[[0,0.5],[1,0.5]];portConstraint=eastwest;rotatable=0;whiteSpace=wrap;html=1;" parent="zXDxkU9e8F_hktkV6KAk-23" vertex="1">
          <mxGeometry y="120" width="230" height="30" as="geometry" />
        </mxCell>
        <mxCell id="zXDxkU9e8F_hktkV6KAk-34" value="enum GAME_CONTINUE_INSTRUCTION" style="text;strokeColor=none;fillColor=none;align=left;verticalAlign=middle;spacingLeft=4;spacingRight=4;overflow=hidden;points=[[0,0.5],[1,0.5]];portConstraint=eastwest;rotatable=0;whiteSpace=wrap;html=1;" parent="zXDxkU9e8F_hktkV6KAk-23" vertex="1">
          <mxGeometry y="150" width="230" height="30" as="geometry" />
        </mxCell>
        <mxCell id="zXDxkU9e8F_hktkV6KAk-37" value="" style="curved=1;endArrow=classic;html=1;rounded=0;exitX=0.483;exitY=0.96;exitDx=0;exitDy=0;exitPerimeter=0;entryX=0.422;entryY=1.08;entryDx=0;entryDy=0;entryPerimeter=0;" parent="1" source="zXDxkU9e8F_hktkV6KAk-34" target="zXDxkU9e8F_hktkV6KAk-21" edge="1">
          <mxGeometry width="50" height="50" relative="1" as="geometry">
            <mxPoint x="450" y="430" as="sourcePoint" />
            <mxPoint x="500" y="380" as="targetPoint" />
            <Array as="points">
              <mxPoint x="690" y="510" />
            </Array>
          </mxGeometry>
        </mxCell>
        <mxCell id="zXDxkU9e8F_hktkV6KAk-38" value="" style="curved=1;endArrow=classic;html=1;rounded=0;entryX=0.438;entryY=1.14;entryDx=0;entryDy=0;entryPerimeter=0;exitX=0.496;exitY=1.04;exitDx=0;exitDy=0;exitPerimeter=0;" parent="1" source="zXDxkU9e8F_hktkV6KAk-34" target="zXDxkU9e8F_hktkV6KAk-15" edge="1">
          <mxGeometry width="50" height="50" relative="1" as="geometry">
            <mxPoint x="840" y="340" as="sourcePoint" />
            <mxPoint x="633.9200000000001" y="312.4000000000001" as="targetPoint" />
            <Array as="points">
              <mxPoint x="760" y="410" />
            </Array>
          </mxGeometry>
        </mxCell>
        <mxCell id="zXDxkU9e8F_hktkV6KAk-39" value="" style="curved=1;endArrow=classic;html=1;rounded=0;entryX=0.462;entryY=1.013;entryDx=0;entryDy=0;entryPerimeter=0;exitX=0.475;exitY=1.2;exitDx=0;exitDy=0;exitPerimeter=0;" parent="1" source="zXDxkU9e8F_hktkV6KAk-34" target="zXDxkU9e8F_hktkV6KAk-11" edge="1">
          <mxGeometry width="50" height="50" relative="1" as="geometry">
            <mxPoint x="840" y="340" as="sourcePoint" />
            <mxPoint x="490" y="530" as="targetPoint" />
            <Array as="points">
              <mxPoint x="520" y="660" />
            </Array>
          </mxGeometry>
        </mxCell>
        <mxCell id="zXDxkU9e8F_hktkV6KAk-47" value="" style="curved=1;endArrow=classic;html=1;rounded=0;exitX=0.457;exitY=-0.024;exitDx=0;exitDy=0;exitPerimeter=0;entryX=0.447;entryY=0.019;entryDx=0;entryDy=0;entryPerimeter=0;" parent="1" source="zXDxkU9e8F_hktkV6KAk-12" target="zXDxkU9e8F_hktkV6KAk-16" edge="1">
          <mxGeometry width="50" height="50" relative="1" as="geometry">
            <mxPoint x="470" y="80" as="sourcePoint" />
            <mxPoint x="520" y="30" as="targetPoint" />
            <Array as="points">
              <mxPoint x="510" y="70" />
            </Array>
          </mxGeometry>
        </mxCell>
        <mxCell id="zXDxkU9e8F_hktkV6KAk-48" value="" style="curved=1;endArrow=classic;html=1;rounded=0;exitX=0.5;exitY=0;exitDx=0;exitDy=0;entryX=0.5;entryY=0;entryDx=0;entryDy=0;" parent="1" edge="1">
          <mxGeometry width="50" height="50" relative="1" as="geometry">
            <mxPoint x="640" y="159" as="sourcePoint" />
            <mxPoint x="160" y="159" as="targetPoint" />
            <Array as="points">
              <mxPoint x="410" y="-30" />
            </Array>
          </mxGeometry>
        </mxCell>
        <mxCell id="zXDxkU9e8F_hktkV6KAk-50" value="" style="curved=1;endArrow=classic;html=1;rounded=0;exitX=0.438;exitY=0.973;exitDx=0;exitDy=0;exitPerimeter=0;entryX=0.443;entryY=1.067;entryDx=0;entryDy=0;entryPerimeter=0;" parent="1" source="zXDxkU9e8F_hktkV6KAk-21" target="zXDxkU9e8F_hktkV6KAk-11" edge="1">
          <mxGeometry width="50" height="50" relative="1" as="geometry">
            <mxPoint x="280" y="400" as="sourcePoint" />
            <mxPoint x="330" y="350" as="targetPoint" />
            <Array as="points">
              <mxPoint x="210" y="420" />
            </Array>
          </mxGeometry>
        </mxCell>
        <mxCell id="zXDxkU9e8F_hktkV6KAk-52" value="&lt;font style=&quot;font-size: 18px;&quot;&gt;Tic_Tac_Toe&lt;/font&gt;" style="text;html=1;align=center;verticalAlign=middle;whiteSpace=wrap;rounded=0;" parent="1" vertex="1">
          <mxGeometry x="80" y="10" width="60" height="30" as="geometry" />
        </mxCell>
        <mxCell id="zXDxkU9e8F_hktkV6KAk-53" value="" style="endArrow=classic;html=1;rounded=0;entryX=0.765;entryY=0.13;entryDx=0;entryDy=0;entryPerimeter=0;" parent="1" edge="1">
          <mxGeometry width="50" height="50" relative="1" as="geometry">
            <mxPoint x="925.3974655991996" y="14.5" as="sourcePoint" />
            <mxPoint x="850.0000000000002" y="14.700000000000045" as="targetPoint" />
          </mxGeometry>
        </mxCell>
        <mxCell id="zXDxkU9e8F_hktkV6KAk-54" value="依存関係を表す" style="text;html=1;align=center;verticalAlign=middle;whiteSpace=wrap;rounded=0;" parent="1" vertex="1">
          <mxGeometry x="930" width="120" height="30" as="geometry" />
        </mxCell>
      </root>
    </mxGraphModel>
  </diagram>
</mxfile>
